<svg id="Layer_1" data-name="Layer 1" xmlns="http://www.w3.org/2000/svg" viewBox="0 0 184.36 31.33"><defs><style>.cls-1,.cls-2,.cls-3,.cls-4,.cls-5,.cls-6{fill:#fff;stroke:#fff;stroke-linejoin:round;}.cls-1{stroke-width:0.3px;}.cls-2{stroke-width:0.36px;}.cls-3{stroke-width:0.48px;}.cls-4{stroke-width:0.49px;}.cls-5{stroke-width:0.52px;}.cls-6{stroke-width:0.24px;}</style></defs><title>wecandoit</title><path class="cls-1" d="M55.53,15.71c.12,3.83,1.13,8.31,4,9.5a5.73,5.73,0,0,0,6.24-1.06l2.51,4.31a10.11,10.11,0,0,1-6.94,2.69c-6.87,0-11.12-5.94-11.12-15.5,0-9.81,5.32-15.5,12.19-15.5,4.31,0,7.38,3.5,7.38,3.5L66.47,7.53A5.91,5.91,0,0,0,60.22,6C56.84,7.28,55.42,11.94,55.53,15.71Z"/><path class="cls-2" d="M80,13.46l-1,1.13a6.49,6.49,0,0,0-3.92-1.44c-4,0-7.22,4-7.22,9s3.23,9,7.22,9a6.17,6.17,0,0,0,4-1.54L80,30.82h3.31l.25-17.36ZM78.66,24.84a3.85,3.85,0,0,1-2.91,1.69c-2.11,0-3.47-1.84-3.47-4.5s1.64-4.5,3.75-4.5a3.58,3.58,0,0,1,2.9,1.57Z"/><path class="cls-3" d="M101.09,30.82H96.53s-.06-8.11-.06-11a2.28,2.28,0,0,0-2.38-1.94c-1.94-.06-2.51,1.15-2.51,1.88,0,2.81-.11,11.05-.11,11.05H87.09V13.47h3.81L91.72,15A6.54,6.54,0,0,1,96,13.15c4.31,0,5,4.26,5.09,5.87C101.25,22.46,101.09,30.82,101.09,30.82Z"/><path class="cls-3" d="M119,1C114.78,1,109.84.9,109.84.9V30.58h9.44c5.09,0,9.56-6.86,9.56-14.84C128.84,6,123.59.9,119,1Zm-.69,24.31c-2.68.29-3.08,0-3.08,0V5.75s.25,0,2.76,0c2.78,0,5.25,3.74,5.25,9.59C123.22,20.12,121.16,25,118.28,25.28Z"/><path class="cls-4" d="M138.29,13.42a8.6,8.6,0,1,0,8.6,8.6A8.6,8.6,0,0,0,138.29,13.42Zm0,13A4.39,4.39,0,1,1,142.68,22,4.39,4.39,0,0,1,138.29,26.42Z"/><rect class="cls-4" x="155.91" y="0.46" width="4.75" height="30.11"/><polygon class="cls-4" points="169.84 30.58 165.47 30.58 165.47 17.55 163.16 17.47 163.16 13.74 165.47 13.82 165.47 8.65 169.84 8.65 169.84 13.71 172.34 13.86 172.34 17.61 169.84 17.46 169.84 30.58"/><polygon class="cls-4" points="181.86 21.59 179.54 21.59 177.92 0.9 184.11 0.9 181.86 21.59"/><circle class="cls-5" cx="180.72" cy="27.45" r="3.13"/><polygon class="cls-6" points="23.6 30.82 18.05 30.77 14.97 14.9 11.78 30.71 6.56 30.67 0.12 0.61 5.66 0.61 9.35 17.46 12.82 0.61 17.6 0.61 20.94 17.91 24.91 0.61 30.3 0.61 23.6 30.82"/><path class="cls-6" d="M43.69,21.86a8.3,8.3,0,1,0-16.6,0c0,4.81,3.48,8.72,8.14,8.72a14.59,14.59,0,0,0,7.67-2.74L40.07,25s-2.3,1.81-4.67,1.35a4.22,4.22,0,0,1-3.44-2.87l11.71,0S43.69,22.41,43.69,21.86ZM32.6,19.94s.65-2.47,2.8-2.47,2.8,2.47,2.8,2.47Z"/></svg>