<?xml version="1.0" encoding="utf-8"?>
<!-- Generator: Adobe Illustrator 15.1.0, SVG Export Plug-In . SVG Version: 6.00 Build 0)  -->
<!DOCTYPE svg PUBLIC "-//W3C//DTD SVG 1.1//EN" "http://www.w3.org/Graphics/SVG/1.1/DTD/svg11.dtd">
<svg version="1.1" id="Layer_1" xmlns="http://www.w3.org/2000/svg" xmlns:xlink="http://www.w3.org/1999/xlink" x="0px" y="0px"
	 width="200px" height="200px" viewBox="0 0 200 200" enable-background="new 0 0 200 200" xml:space="preserve">
<g>
	<path fill="#E4D8CE" d="M69.404,81.067l-3.867,18.281c0,0-3.868,21.445,6.68,37.266c9.14,13.711,17.578,27.422,39.374,27.422
		c21.797,0,43.596-28.125,45-44.648c1.406-16.523,0-27.773,0-27.773L99.989,55.755l-23.906,6.68L69.404,81.067z"/>
	<polygon fill="#E4D8CE" points="95.647,157.132 94.786,164.036 99.883,174.052 116.01,175.485 127.48,169.464 126.908,165.736 
		125.796,160.356 124.612,155.41 	"/>
	<path fill="#EACD57" d="M89.677,65.13c0,0-0.365,16.875,5.559,18.984c5.927,2.109,16.24,0.703,18.817,4.219
		c2.578,3.516,11.485,9.609,17.578,7.265c6.094-2.343,6.094-6.093,6.094-6.093s-5.626,2.109-8.203-0.235
		c-2.579-2.343,5.858-1.64,8.203-5.39c2.344-3.75-10.245-16.875-10.245-16.875"/>
	<path fill="#EACD57" d="M145.48,85.638c0,0-0.702,15.469,1.174,20.684c1.875,5.215,5.874,17.082,4.342,24.86
		c-1.529,7.776,1.752,11.527,4.096,10.94c2.342-0.586,3.984-6.211,3.984-6.211s-4.245,1.252-2.557-8.203
		c1.361-7.617-0.63-25.078-1.567-28.359C154.014,96.066,145.48,85.638,145.48,85.638z"/>
	<path fill="#B02E12" d="M61.231,115.15l4.931,6.622c0,0-0.078-5.625,0-9.366c0.078-3.741,2.187-11.124,7.108-17.276
		c4.923-6.152,10.373-24.563,18.986-24.322c8.612,0.24,27.732,2.876,35.224,8.677s23.661,13.359,26.3,19.688
		c2.637,6.328,2.978,18.104,2.978,18.104s2.118-4.921,2.646-10.37c0.529-5.45,1.057-10.723,0-15.645
		c-1.053-4.922-0.703-28.125-14.588-37.969c-13.887-9.844-33.398-23.203-57.307-11.426C63.603,53.646,60.439,69.817,60.439,69.817
		L61.231,115.15z"/>
	<path fill="#E4D8CE" d="M39.217,67.861c0,0-3.74-9.997-3.564-18.083c0.177-8.086-4.746-26.191,0-26.895s4.043,16.699,6.505,15.996
		c2.461-0.703-3.516-22.676,1.581-23.027c5.099-0.352,2.638,22.324,5.304,21.973c2.667-0.352-1.085-25.665,5.067-25.665
		s1.056,24.96,3.165,25.097s3.867-18.417,7.569-17.89c3.702,0.527,0.341,11.777-0.714,17.89c-1.056,6.113-1.406,13.047,0,13.926
		c0,0,2.812,1.406,6.68-2.637c3.866-4.043,9.616-6.238,10.696-3.382c1.081,2.855-1.557,3.382-4.72,7.425
		c-3.164,4.043-4.699,11.995-10.195,13.535c-5.498,1.541-4.043,1.758-6.152,3.691l-11.396,2.344L39.217,67.861z"/>
	<g>
		<defs>
			<path id="SVGID_1_" d="M61.231,115.15l4.931,6.622c0,0-0.078-5.625,0-9.366c0.078-3.741,2.187-11.124,7.108-17.276
				c4.923-6.152,10.373-24.563,18.986-24.322c8.612,0.24,27.732,2.876,35.224,8.677s23.661,13.359,26.3,19.688
				c2.637,6.328,2.978,18.104,2.978,18.104s2.118-4.921,2.646-10.37c0.529-5.45,1.057-10.723,0-15.645
				c-1.053-4.922-0.703-28.125-14.588-37.969c-13.887-9.844-33.398-23.203-57.307-11.426C63.603,53.646,60.439,69.817,60.439,69.817
				L61.231,115.15z"/>
		</defs>
		<clipPath id="SVGID_2_">
			<use xlink:href="#SVGID_1_"  overflow="visible"/>
		</clipPath>
		<g clip-path="url(#SVGID_2_)">
			<circle fill="#E4D8CE" cx="69.223" cy="68.91" r="5.454"/>
			<circle fill="#E4D8CE" cx="64.845" cy="88.268" r="5.455"/>
			<circle fill="#E4D8CE" cx="87.208" cy="72.396" r="5.455"/>
			<circle fill="#E4D8CE" cx="87.208" cy="44.45" r="5.455"/>
			<circle fill="#E4D8CE" cx="102.833" cy="55.359" r="5.456"/>
			<circle fill="#E4D8CE" cx="119.3" cy="70.808" r="5.455"/>
			<circle fill="#E4D8CE" cx="124.754" cy="42.161" r="5.455"/>
			<circle fill="#E4D8CE" cx="138.016" cy="60.815" r="5.456"/>
			<circle fill="#E4D8CE" cx="157.216" cy="72.396" r="5.456"/>
			<circle fill="#E4D8CE" cx="145.353" cy="85.638" r="5.454"/>
		</g>
	</g>
	<path fill="#1C376E" d="M175.088,192.161c0,0-7.17-17.248-23.803-20.403c-16.636-3.155-24.377-6.021-24.377-6.021
		s-5.655,5.448-15.877,5.448c-10.221,0-16.245-7.148-16.245-7.148s-8.029,0.551-19.788-12.067
		c-11.76-12.618-14.053-16.634-14.053-30.112s5.163-42.732,2.581-45.313c-2.581-2.582-2.581-2.582-2.581-2.582
		s-6.311,2.008-13.766,0c-7.457-2.007-10.037-3.154-10.037-3.154s-5.737,0.573-7.744,10.037c-2.008,9.465-6.024,50.188-4.303,62.521
		c1.721,12.333,11.473,26.671,17.495,34.128c6.023,7.457,10.611,14.668,10.611,14.668H175.088z"/>
	<path fill="#1C376E" d="M60.946,73.962l-0.506-4.145c0,0-4.746,1.23-10.02,0.991c-5.274-0.241-13.277-3.803-13.277-3.803v3.803
		l4.019,4.869l13.594,2.11L60.946,73.962z"/>
	<path fill="#B02E12" d="M122.896,52.544c0,0,2.466-13.726-12.669-22.876C95.091,20.517,73.973,7.495,76.79,15.589
		c2.815,8.096,3.263,33.083,17.997,39.067c14.734,5.983,23.887,4.575,23.887,4.575s4.804,14.613,23.578,15.838
		c18.778,1.226,33.438-9.319,26.397-9.939c-7.039-0.619-16.518-16.321-29.376-15.686C126.414,50.08,122.896,52.544,122.896,52.544z"
		/>
	<g>
		<defs>
			<path id="SVGID_3_" d="M122.896,52.544c0,0,2.466-13.726-12.669-22.876C95.091,20.517,73.973,7.495,76.79,15.589
				c2.815,8.096,3.263,33.083,17.997,39.067c14.734,5.983,23.887,4.575,23.887,4.575s4.804,14.613,23.578,15.838
				c18.778,1.226,33.438-9.319,26.397-9.939c-7.039-0.619-16.518-16.321-29.376-15.686C126.414,50.08,122.896,52.544,122.896,52.544
				z"/>
		</defs>
		<clipPath id="SVGID_4_">
			<use xlink:href="#SVGID_3_"  overflow="visible"/>
		</clipPath>
		<g clip-path="url(#SVGID_4_)">
			<circle fill="#E4D8CE" cx="93.288" cy="18.502" r="5.455"/>
			<circle fill="#E4D8CE" cx="84.219" cy="36.706" r="5.455"/>
			<circle fill="#E4D8CE" cx="107.232" cy="40.226" r="5.456"/>
			<circle fill="#E4D8CE" cx="101.778" cy="55.755" r="5.456"/>
			<circle fill="#E4D8CE" cx="125.007" cy="55.755" r="5.454"/>
			<circle fill="#E4D8CE" cx="139.898" cy="70.808" r="5.454"/>
			<circle fill="#E4D8CE" cx="150.808" cy="52.544" r="5.456"/>
			<circle fill="#E4D8CE" cx="159.077" cy="69.712" r="5.455"/>
		</g>
	</g>
</g>
</svg>
