<?xml version="1.0" encoding="utf-8"?>
<!-- Generator: Adobe Illustrator 15.1.0, SVG Export Plug-In . SVG Version: 6.00 Build 0)  -->
<!DOCTYPE svg PUBLIC "-//W3C//DTD SVG 1.1//EN" "http://www.w3.org/Graphics/SVG/1.1/DTD/svg11.dtd">
<svg version="1.1" id="Layer_1" xmlns="http://www.w3.org/2000/svg" xmlns:xlink="http://www.w3.org/1999/xlink" x="0px" y="0px"
	 width="200px" height="200px" viewBox="0 0 200 200" enable-background="new 0 0 200 200" xml:space="preserve">
<path fill="#1C376E" d="M169.56,63.036c-8.145,1.589-26.021,10.002-44.447,18.537c8.338-11.127,32.603-47.416,32.603-47.416
	s-0.734-0.46-4.021,0.848c-3.285,1.316-13.287,9.878-26.888,24.475c-8.359,8.974-21.473,24.242-30.34,34.678
	c-6.967,2.496-8.875,1.887-13.552,1.018c-6.126-1.14-20.594-7.008-24.641-8.678c-6.141-4.383-17.782-8.261-27.858-2.346
	c-11.707,6.871-11.053,18.045-8.039,23.019c3.02,4.974,7.997,9.44,7.997,9.44l10.294-2.845c0,0,0.483-3.694,4.264-5.308
	c3.783-1.617,16.246-3.503,18.965-5.379c0.499-0.345,0.871-0.885,1.12-1.563c1.956-0.036,5.091-0.009,8.364,0.371
	c2.538,0.297,8.285,1.874,13.64,3.453l0,0.001l-12.764,11.408c-2.759-0.168-5.321,1.588-7.71,4.904
	c-4.063,5.643-11.483,11.731-22.184,20.263c-10.702,8.53-10.237,15.28-7.059,19.396c3.176,4.12,7.809,5.774,16.778,3.738
	c8.971-2.039,26.459-16.956,30.642-25.389c2.021-4.076,1.753-8.09,0.608-11.486c0.234-1.088,0.532-2.396,0.914-3.956
	c1.37-5.592,10.945-12.986,13.366-14.229c2.422-1.241,4.504-3.735,4.504-3.735v-0.001c0.277-0.135,0.561-0.272,0.854-0.417
	c3.968-1.955,20.514-10.402,34.311-18.316c13.797-7.916,40.214-26.431,40.214-26.431S179.494,61.092,169.56,63.036z M44.373,103.652
	c-5.818,2.622-13.695,5.287-17.423-3.798c-3.726-9.078,15.839-21.248,23.789-9.138C53.053,94.24,50.191,101.031,44.373,103.652z
	 M80.333,135.521c-1.918,6.683-10.138,17.183-22.305,23.053c-12.166,5.869-18.112,0.553-16.719-5.13
	c1.392-5.684,7.349-7.329,10.709-9.52c3.358-2.189,8.156-5.25,11.873-11.585c3.716-6.337,7.462-7.387,9.308-7.459
	C77.156,124.719,81.855,130.222,80.333,135.521z"/>
</svg>
