<?xml version="1.0" encoding="utf-8"?>
<!-- Generator: Adobe Illustrator 15.1.0, SVG Export Plug-In . SVG Version: 6.00 Build 0)  -->
<!DOCTYPE svg PUBLIC "-//W3C//DTD SVG 1.1//EN" "http://www.w3.org/Graphics/SVG/1.1/DTD/svg11.dtd">
<svg version="1.1" id="Layer_1" xmlns="http://www.w3.org/2000/svg" xmlns:xlink="http://www.w3.org/1999/xlink" x="0px" y="0px"
	 width="200px" height="200px" viewBox="0 0 200 200" enable-background="new 0 0 200 200" xml:space="preserve">
<g>
	<path fill="#1C376E" d="M14.75,159.435l-0.66-4.407c11.92-1.786,25.708-19.402,29.964-30.746
		c4.678-12.473,20.916-21.092,21.604-21.453l2.069,3.948c-0.154,0.081-15.424,8.201-19.501,19.07
		C43.484,138.488,28.455,157.382,14.75,159.435z"/>
</g>
<g>
	<path fill="#1C376E" d="M35.104,181.015l-1.273-4.271l0.637,2.136l-0.641-2.135c0.134-0.04,13.405-4.166,19.179-16.148
		c1.528-3.172,2.739-6.052,3.91-8.837c3.565-8.48,6.381-15.179,14.316-19.289c9.044-4.683,13.063-8.944,13.103-8.986l3.276,3.022
		c-0.179,0.194-4.509,4.838-14.329,9.922c-6.502,3.367-8.791,8.813-12.257,17.059c-1.137,2.704-2.426,5.77-4.004,9.045
		C50.375,176.322,35.725,180.828,35.104,181.015z"/>
</g>
<g>
	<path fill="#1C376E" d="M108.881,68.665l-3.778-2.365c0.412-0.659,10.253-16.188,23.046-19.898
		c11.638-3.374,30.257-15.771,32.951-27.52l4.344,0.996c-3.096,13.506-23.085,27.044-36.053,30.804
		C118.214,53.923,108.972,68.517,108.881,68.665z"/>
</g>
<g>
	<path fill="#1C376E" d="M127.028,90.001l-2.756-3.502c0.04-0.032,4.595-3.712,9.958-12.372c4.707-7.598,11.603-9.893,20.333-12.798
		c2.865-0.953,5.83-1.939,9.107-3.22c12.387-4.838,17.521-17.755,17.572-17.885l4.159,1.603
		c-0.232,0.604-5.854,14.865-20.109,20.434c-3.385,1.322-6.539,2.372-9.322,3.298c-8.487,2.824-14.095,4.69-17.95,10.917
		C132.196,85.876,127.237,89.837,127.028,90.001z"/>
</g>
<g>
	
		<rect x="78.219" y="65.84" transform="matrix(0.6794 0.7337 -0.7337 0.6794 100.4281 -40.8441)" fill="#B02E12" width="37.481" height="57.35"/>
	<path fill="#FFFFFF" d="M88.573,129.849l-27.485-29.681l44.259-40.986l27.485,29.679L88.573,129.849z M65.286,100.329l23.448,25.32
		l39.9-36.95l-23.45-25.319L65.286,100.329z"/>
</g>
<g>
	<g>
		<line fill="#B02E12" x1="73.477" y1="111.417" x2="115.555" y2="72.45"/>
		
			<rect x="93.03" y="63.258" transform="matrix(0.6796 0.7335 -0.7335 0.6796 97.7155 -39.8801)" fill="#FFFFFF" width="2.971" height="57.35"/>
	</g>
	<g>
		<line fill="#B02E12" x1="78.292" y1="116.617" x2="120.369" y2="77.648"/>
		
			<rect x="97.845" y="68.456" transform="matrix(0.6798 0.7334 -0.7334 0.6798 103.0403 -41.747)" fill="#FFFFFF" width="2.971" height="57.351"/>
	</g>
	<g>
		<line fill="#B02E12" x1="83.251" y1="121.974" x2="125.33" y2="83.004"/>
		
			<rect x="102.805" y="73.812" transform="matrix(0.6798 0.7334 -0.7334 0.6798 108.5569 -43.6697)" fill="#FFFFFF" width="2.971" height="57.352"/>
	</g>
</g>
</svg>
