<?xml version="1.0" encoding="utf-8"?>
<!-- Generator: Adobe Illustrator 15.1.0, SVG Export Plug-In . SVG Version: 6.00 Build 0)  -->
<!DOCTYPE svg PUBLIC "-//W3C//DTD SVG 1.1//EN" "http://www.w3.org/Graphics/SVG/1.1/DTD/svg11.dtd">
<svg version="1.1" id="Layer_1" xmlns="http://www.w3.org/2000/svg" xmlns:xlink="http://www.w3.org/1999/xlink" x="0px" y="0px"
	 width="400px" height="100px" viewBox="0 0 400 100" enable-background="new 0 0 400 100" xml:space="preserve">
<polygon fill="#B02E12" points="395,74.862 5,74.862 14.75,50 5,25.137 395,25.137 385.25,50 "/>
<g>
	<path fill="#E4D8CE" d="M93.797,33.809h6.094l4.951,28.983h-4.57l-0.743-5.122h-5.408l-0.724,5.122h-4.551L93.797,33.809z
		 M94.73,53.537h4.208l-2.095-14.663L94.73,53.537z"/>
	<path fill="#E4D8CE" d="M104.768,39.883h2.476v-0.152c0-1.143,0.069-2.18,0.209-3.113c0.14-0.933,0.406-1.729,0.8-2.39
		c0.393-0.66,0.949-1.171,1.666-1.533s1.66-0.543,2.828-0.543c0.926,0,1.714,0.137,2.361,0.41s1.174,0.562,1.581,0.866l-0.286,3.713
		c-0.14-0.076-0.298-0.158-0.476-0.248c-0.178-0.088-0.388-0.174-0.628-0.257c-0.241-0.083-0.514-0.152-0.819-0.209
		s-0.647-0.086-1.028-0.086s-0.686,0.061-0.914,0.181s-0.407,0.317-0.533,0.59c-0.127,0.273-0.209,0.625-0.248,1.057
		c-0.038,0.432-0.057,0.952-0.057,1.562v0.152h7.141v-7.351h4.456v7.351h4.342v4.132h-4.342v11.578c0,0.609,0.019,1.13,0.057,1.562
		s0.121,0.784,0.248,1.057c0.126,0.273,0.305,0.47,0.533,0.591s0.533,0.181,0.914,0.181s0.724-0.028,1.028-0.086
		c0.305-0.057,0.578-0.126,0.819-0.209c0.241-0.083,0.45-0.169,0.628-0.257c0.178-0.089,0.336-0.172,0.476-0.248l0.286,3.714
		c-0.407,0.305-0.933,0.593-1.581,0.866s-1.435,0.409-2.361,0.409c-1.168,0-2.111-0.181-2.828-0.543
		c-0.717-0.361-1.273-0.873-1.666-1.532c-0.394-0.66-0.66-1.457-0.8-2.391c-0.14-0.933-0.209-1.971-0.209-3.113V44.016H111.7v18.776
		h-4.456V44.016h-2.476V39.883z"/>
	<path fill="#E4D8CE" d="M142.895,55.061v0.438c0,1.04-0.086,2.027-0.257,2.961c-0.171,0.933-0.499,1.749-0.98,2.447
		c-0.483,0.697-1.165,1.25-2.047,1.656s-2.028,0.609-3.437,0.609c-1.435,0-2.6-0.219-3.495-0.657
		c-0.895-0.438-1.59-1.031-2.085-1.78s-0.832-1.618-1.009-2.608c-0.178-0.99-0.267-2.031-0.267-3.123v-7.332
		c0-1.104,0.088-2.155,0.267-3.151c0.177-0.997,0.514-1.866,1.009-2.609s1.184-1.333,2.066-1.771s2.034-0.657,3.457-0.657
		c1.421,0,2.574,0.209,3.456,0.628s1.571,0.984,2.066,1.695c0.495,0.711,0.828,1.533,1,2.466s0.257,1.914,0.257,2.942v4.742
		l-9.198,1.752v1.333c0,0.469,0.019,0.933,0.057,1.39s0.139,0.866,0.305,1.229c0.165,0.361,0.406,0.654,0.724,0.876
		c0.317,0.222,0.762,0.333,1.333,0.333c0.545,0,0.977-0.095,1.295-0.285c0.317-0.19,0.555-0.441,0.714-0.753
		c0.159-0.311,0.26-0.666,0.305-1.066c0.044-0.399,0.067-0.809,0.067-1.228v-0.477H142.895z M136.116,43.749
		c-0.559,0-0.997,0.108-1.314,0.324c-0.318,0.216-0.559,0.505-0.724,0.867c-0.166,0.362-0.27,0.774-0.314,1.238
		s-0.066,0.942-0.066,1.438v2.247l4.799-0.99v-1.714c0-0.393-0.019-0.793-0.057-1.2c-0.038-0.406-0.137-0.774-0.295-1.104
		c-0.159-0.33-0.397-0.596-0.714-0.8C137.112,43.851,136.674,43.749,136.116,43.749z"/>
	<path fill="#E4D8CE" d="M155.123,44.511c-0.051-0.012-0.14-0.05-0.267-0.114c-0.127-0.063-0.292-0.133-0.495-0.209
		c-0.204-0.076-0.436-0.143-0.695-0.2c-0.26-0.057-0.549-0.086-0.866-0.086h-0.019c-0.521,0-0.95,0.121-1.286,0.362
		c-0.336,0.242-0.6,0.556-0.79,0.943s-0.324,0.822-0.4,1.304c-0.076,0.483-0.121,0.959-0.133,1.428v14.854h-4.418v-22.89h4.418v2.38
		c0.279-0.825,0.698-1.498,1.257-2.019c0.558-0.52,1.307-0.781,2.247-0.781v0.019c0-0.012,0.006-0.019,0.019-0.019
		c0.177,0,0.402,0.029,0.676,0.086c0.273,0.057,0.517,0.162,0.733,0.314L155.123,44.511z"/>
	<path fill="#E4D8CE" d="M171.333,52.204v10.588h-4.513V52.204l-5.846-18.376h4.951l3.199,12.149l3.428-12.149h4.456L171.333,52.204
		z"/>
	<path fill="#E4D8CE" d="M176.307,47.672c0-1.104,0.089-2.155,0.267-3.151s0.514-1.866,1.009-2.609s1.184-1.333,2.066-1.771
		c0.882-0.438,2.034-0.657,3.456-0.657s2.574,0.223,3.457,0.667c0.882,0.445,1.571,1.042,2.066,1.79c0.495,0.75,0.829,1.616,1,2.6
		s0.257,2.022,0.257,3.113v7.351c0,1.104-0.085,2.151-0.257,3.142s-0.499,1.856-0.981,2.6c-0.482,0.742-1.162,1.333-2.038,1.771
		c-0.876,0.438-2.025,0.657-3.447,0.657c-1.435,0-2.596-0.219-3.485-0.657c-0.889-0.438-1.584-1.031-2.085-1.78
		c-0.502-0.749-0.841-1.618-1.019-2.608s-0.267-2.031-0.267-3.123V47.672z M183.105,43.749c-0.559,0-0.994,0.108-1.304,0.324
		c-0.312,0.216-0.546,0.502-0.705,0.857c-0.159,0.356-0.257,0.762-0.295,1.219s-0.057,0.933-0.057,1.428v7.503
		c0,0.469,0.016,0.93,0.048,1.38c0.031,0.451,0.124,0.854,0.276,1.21c0.152,0.354,0.387,0.645,0.705,0.866s0.762,0.333,1.333,0.333
		c0.546,0,0.974-0.107,1.286-0.323c0.311-0.217,0.545-0.498,0.705-0.848c0.158-0.35,0.257-0.752,0.295-1.209
		s0.057-0.934,0.057-1.429v-7.484c0-0.469-0.016-0.933-0.047-1.39c-0.032-0.457-0.124-0.866-0.276-1.228s-0.387-0.654-0.705-0.876
		S183.664,43.749,183.105,43.749z"/>
	<path fill="#E4D8CE" d="M197.104,39.883v15.215c0,0.47,0.016,0.931,0.048,1.381c0.031,0.45,0.124,0.856,0.276,1.219
		c0.152,0.361,0.387,0.654,0.705,0.876c0.317,0.222,0.762,0.333,1.333,0.333c0.545,0,0.974-0.133,1.286-0.399
		c0.311-0.267,0.546-0.609,0.704-1.028c0.159-0.419,0.257-0.886,0.295-1.4c0.038-0.514,0.058-1.019,0.058-1.514V39.902h4.398v22.89
		h-4.398v-2.247c-0.292,0.787-0.701,1.419-1.228,1.895c-0.527,0.477-1.241,0.715-2.143,0.715c-1.231,0-2.225-0.22-2.98-0.657
		c-0.756-0.438-1.336-1.031-1.743-1.78c-0.407-0.75-0.679-1.616-0.819-2.6c-0.14-0.983-0.209-2.021-0.209-3.113V39.883H197.104z"/>
	<path fill="#E4D8CE" d="M229.292,55.766c0,1.192-0.134,2.25-0.4,3.17c-0.267,0.921-0.686,1.695-1.257,2.323
		c-0.571,0.629-1.299,1.104-2.18,1.429c-0.883,0.323-1.939,0.485-3.171,0.485c-1.371,0-2.511-0.168-3.418-0.505
		c-0.909-0.336-1.632-0.828-2.171-1.476c-0.54-0.647-0.918-1.44-1.134-2.38c-0.216-0.94-0.323-2.013-0.323-3.219v-1.98h4.494v1.942
		c0,0.533,0.034,1.003,0.104,1.409c0.069,0.406,0.196,0.746,0.381,1.019c0.184,0.273,0.438,0.477,0.762,0.609
		c0.324,0.134,0.739,0.2,1.247,0.2c0.495,0,0.905-0.076,1.229-0.229c0.324-0.152,0.581-0.361,0.771-0.628s0.326-0.588,0.409-0.962
		c0.082-0.374,0.124-0.784,0.124-1.229v-0.229c0-0.546-0.028-1.038-0.086-1.476c-0.057-0.438-0.166-0.835-0.323-1.19
		c-0.159-0.355-0.376-0.683-0.647-0.98c-0.273-0.298-0.626-0.588-1.058-0.866l-2.742-1.771c-0.952-0.622-1.718-1.215-2.294-1.78
		c-0.578-0.565-1.023-1.158-1.333-1.781c-0.312-0.622-0.521-1.298-0.629-2.028c-0.108-0.73-0.162-1.571-0.162-2.523v-0.514
		c0-2.488,0.594-4.307,1.781-5.456c1.187-1.149,2.903-1.724,5.15-1.724c2.336,0,4.053,0.604,5.151,1.809
		c1.098,1.207,1.647,3.022,1.647,5.446v2.285h-4.514l-0.019-2.533c0-0.393-0.045-0.752-0.134-1.076s-0.223-0.603-0.399-0.838
		c-0.178-0.235-0.416-0.416-0.714-0.543c-0.3-0.126-0.657-0.19-1.076-0.19c-0.444,0-0.819,0.073-1.124,0.219
		s-0.549,0.352-0.732,0.619c-0.186,0.267-0.318,0.584-0.4,0.952c-0.083,0.369-0.118,0.769-0.104,1.2l0.019,0.552
		c0.013,0.75,0.193,1.46,0.543,2.133c0.349,0.673,0.872,1.213,1.571,1.619l2.456,1.447c0.901,0.546,1.65,1.114,2.247,1.705
		s1.072,1.222,1.429,1.895c0.355,0.673,0.609,1.397,0.762,2.171c0.152,0.773,0.241,1.611,0.267,2.514V55.766z"/>
	<path fill="#E4D8CE" d="M231.521,34.951c0-0.762,0.21-1.32,0.629-1.676c0.419-0.355,1.073-0.533,1.961-0.533
		c0.94,0,1.616,0.178,2.028,0.533c0.413,0.356,0.619,0.914,0.619,1.676s-0.206,1.321-0.619,1.676
		c-0.412,0.356-1.088,0.533-2.028,0.533c-0.888,0-1.542-0.177-1.961-0.533C231.731,36.272,231.521,35.713,231.521,34.951z
		 M231.94,62.792v-22.89h4.418v22.89H231.94z"/>
	<path fill="#E4D8CE" d="M252.797,39.902v23.062c0,1.143-0.096,2.18-0.286,3.113c-0.19,0.933-0.514,1.729-0.971,2.39
		s-1.074,1.171-1.848,1.533c-0.774,0.361-1.74,0.543-2.895,0.543c-1.257,0-2.35-0.093-3.275-0.276
		c-0.927-0.184-1.676-0.429-2.247-0.733l0.286-3.732c0.215,0.089,0.497,0.169,0.847,0.238c0.349,0.069,0.726,0.127,1.134,0.171
		c0.405,0.045,0.828,0.079,1.267,0.105c0.438,0.025,0.858,0.038,1.266,0.038c0.762,0,1.329-0.258,1.705-0.771
		c0.373-0.515,0.562-1.388,0.562-2.618v-2.285c-0.142,0.381-0.313,0.724-0.515,1.028c-0.203,0.305-0.441,0.564-0.714,0.78
		c-0.274,0.216-0.589,0.384-0.942,0.505c-0.356,0.121-0.762,0.181-1.219,0.181c-1.232,0-2.223-0.219-2.971-0.657
		c-0.751-0.438-1.331-1.031-1.742-1.78c-0.414-0.749-0.686-1.618-0.819-2.608s-0.2-2.031-0.2-3.123v-7.332
		c0-1.104,0.066-2.152,0.2-3.142s0.401-1.856,0.81-2.599c0.405-0.743,0.982-1.333,1.732-1.771c0.749-0.438,1.733-0.657,2.952-0.657
		c0.914,0,1.64,0.232,2.181,0.695c0.538,0.463,0.953,1.076,1.247,1.837v-2.133H252.797z M245.998,58.907
		c0.457,0,0.834-0.098,1.133-0.295c0.298-0.197,0.533-0.457,0.705-0.781c0.172-0.323,0.291-0.688,0.361-1.095
		c0.069-0.406,0.116-0.825,0.144-1.257v-8.379c-0.027-0.406-0.076-0.809-0.152-1.209s-0.2-0.755-0.372-1.066
		c-0.171-0.311-0.403-0.562-0.694-0.752c-0.294-0.19-0.667-0.286-1.124-0.286c-0.546,0-0.979,0.108-1.295,0.324
		c-0.317,0.216-0.556,0.499-0.714,0.848c-0.16,0.349-0.257,0.755-0.295,1.219s-0.058,0.942-0.058,1.438v7.484
		c0,0.47,0.02,0.934,0.058,1.391s0.133,0.863,0.285,1.219c0.152,0.354,0.387,0.645,0.705,0.866
		C245,58.796,245.438,58.907,245.998,58.907z"/>
	<path fill="#E4D8CE" d="M265.101,62.792V47.577c0-0.457-0.014-0.914-0.038-1.371c-0.026-0.457-0.111-0.863-0.258-1.219
		c-0.146-0.355-0.371-0.644-0.676-0.866s-0.742-0.333-1.313-0.333c-0.533,0-0.959,0.137-1.276,0.41s-0.559,0.619-0.724,1.038
		s-0.273,0.886-0.323,1.4c-0.052,0.514-0.076,1.019-0.076,1.514v14.644h-4.418v-22.89h4.418v2.285
		c0.164-0.368,0.381-0.714,0.647-1.038s0.571-0.606,0.914-0.848c0.343-0.241,0.72-0.431,1.133-0.571
		c0.412-0.139,0.848-0.209,1.305-0.209c1.154,0,2.071,0.219,2.751,0.657s1.193,1.032,1.543,1.78c0.35,0.75,0.571,1.616,0.666,2.6
		c0.096,0.984,0.144,2.022,0.144,3.113v15.12H265.101z"/>
	<path fill="#E4D8CE" d="M292.927,33.828v21.918c0,1.117-0.101,2.133-0.305,3.047c-0.203,0.914-0.564,1.695-1.085,2.343
		s-1.231,1.148-2.133,1.504s-2.051,0.533-3.447,0.533c-1.409,0-2.564-0.178-3.466-0.533c-0.9-0.355-1.612-0.856-2.133-1.504
		c-0.52-0.647-0.882-1.429-1.085-2.343s-0.305-1.93-0.305-3.047V33.828h4.494v21.862c0,0.457,0.022,0.876,0.066,1.257
		c0.045,0.381,0.152,0.707,0.323,0.98c0.172,0.273,0.423,0.488,0.753,0.647s0.78,0.238,1.352,0.238s1.019-0.079,1.343-0.238
		c0.323-0.159,0.571-0.374,0.742-0.647c0.172-0.273,0.28-0.6,0.324-0.98c0.045-0.381,0.066-0.8,0.066-1.257V33.828H292.927z"/>
	<path fill="#E4D8CE" d="M296.13,69.762V39.902h4.418v2.152c0.278-0.774,0.686-1.396,1.219-1.866
		c0.533-0.469,1.263-0.705,2.189-0.705c1.23,0,2.221,0.223,2.971,0.667c0.749,0.445,1.326,1.042,1.733,1.79
		c0.405,0.75,0.678,1.616,0.818,2.6c0.14,0.984,0.21,2.022,0.21,3.113v7.351c0,1.104-0.066,2.151-0.2,3.142
		c-0.133,0.99-0.403,1.856-0.81,2.6c-0.407,0.742-0.984,1.333-1.732,1.771c-0.75,0.438-1.733,0.657-2.952,0.657
		c-0.94,0-1.679-0.238-2.218-0.714c-0.541-0.477-0.95-1.102-1.229-1.876v9.179H296.13z M302.909,58.869
		c0.545,0,0.977-0.107,1.295-0.323c0.316-0.217,0.554-0.498,0.714-0.848c0.158-0.35,0.257-0.752,0.295-1.209
		s0.058-0.934,0.058-1.429v-7.484c0-0.469-0.02-0.933-0.058-1.39s-0.133-0.866-0.285-1.228s-0.389-0.654-0.705-0.876
		c-0.317-0.222-0.756-0.333-1.313-0.333c-0.547,0-0.975,0.133-1.285,0.4c-0.313,0.267-0.547,0.609-0.705,1.028
		c-0.16,0.419-0.257,0.886-0.295,1.4s-0.058,1.019-0.058,1.514v6.475c0,0.47,0.016,0.959,0.048,1.467
		c0.03,0.507,0.124,0.971,0.276,1.39s0.387,0.765,0.704,1.038C301.911,58.733,302.35,58.869,302.909,58.869z"/>
</g>
</svg>
